<?xml version="1.0" encoding="iso-8859-1"?>
<!-- Generator: Adobe Illustrator 16.0.0, SVG Export Plug-In . SVG Version: 6.00 Build 0)  -->
<!DOCTYPE svg PUBLIC "-//W3C//DTD SVG 1.1//EN" "http://www.w3.org/Graphics/SVG/1.1/DTD/svg11.dtd">
<svg version="1.1" id="Capa_1" xmlns="http://www.w3.org/2000/svg" xmlns:xlink="http://www.w3.org/1999/xlink" x="0px" y="0px"
	 width="294.485px" viewBox="0 0 294.485 294.485" style="enable-background:new 0 0 294.485 294.485;"
	 xml:space="preserve">
<g>
	<g>
		<path stroke="black" d="M172.856,99.545c0.155,0.171,0.372,0.262,0.585,0.262c0.182,0,0.357-0.064,0.513-0.187
			c0.626-0.557,1.139-2.266,1.522-3.998c1.025-0.166,1.864-0.981,1.952-2.069c1.206-14.667-2.356-25.383-7.726-33.209
			c0.761-9.893,0.347-17.746-4.438-20.731c-7.918-4.953-15.902,0.578-18.792,2.996c-4.357-1.686-7.433-2.271-7.55-2.286
			c-1.263-0.229-2.462,0.621-2.68,1.882c-0.223,1.256,0.627,2.462,1.882,2.685c0.43,0.078,3.55,0.663,7.754,2.338
			c0.168,0.101,0.344,0.168,0.528,0.217c5.62,2.322,12.974,6.553,18.535,14.025c-0.249,2.904-0.575,5.91-0.901,8.828
			c-0.88,8.075-1.791,16.425-1.295,23.229c0.089,1.16,1.016,2.029,2.145,2.12c0.362,1.427,0.9,2.949,1.631,3.855
			c0.15,0.196,0.378,0.29,0.605,0.29c0.161,0,0.332-0.052,0.477-0.163c0.332-0.272,0.383-0.754,0.119-1.088
			c-0.564-0.709-1.01-1.999-1.336-3.288c0.643-0.456,1.046-1.229,0.989-2.066c-0.466-6.384,0.425-14.52,1.284-22.393
			c0.093-0.891,0.187-1.766,0.279-2.641c3.024,6.457,4.712,14.641,3.863,25.011c-0.078,0.919,0.394,1.745,1.139,2.18
			c-0.342,1.563-0.725,2.827-1.01,3.097C172.607,98.735,172.576,99.222,172.856,99.545z M151.352,44.771
			c2.801-1.828,7.322-3.811,11.454-1.225c2.128,1.331,2.677,5.792,2.532,11.4C160.869,50.255,155.83,47.006,151.352,44.771z"/>
		<path d="M18.214,245.589c0.487-2.729,1.113-6.358,1.872-10.729c5.727-33.083,17.637-101.931,28.749-126.066
			c1.157-2.503,6.931-4.649,17.046-8.246c6.268-2.216,17.929-6.351,18.411-8.435c0.588-2.789-8.909-13.033-18.048-20.922
			l-0.971-0.833l7.705-13.313c-5.15-1.895-9.349-3.754-12.637-5.388C42.668,85.241,15.159,214.551,8.956,244.404
			C11.586,244.704,14.708,245.092,18.214,245.589z"/>
		<path d="M265.845,244.523c3.211-0.829,6.245-1.621,9.041-2.352c-6.151-29.598-32.602-153.844-50.259-190.394
			c-3.257,1.644-7.426,3.521-12.448,5.414l6.432,11.12l-0.969,0.836c-9.149,7.889-18.646,18.128-18.046,20.917
			c0.477,2.084,12.138,6.221,18.403,8.443c10.107,3.588,15.887,5.743,17.046,8.246c11.118,24.135,23.027,92.979,28.75,126.066
			C264.648,237.729,265.332,241.706,265.845,244.523z"/>
		<path d="M294.485,236.967c-5.411-14.297-27.056-104.344-33.238-131.78c-6.183-27.449-21.251-39.81-22.022-47.693
			c-0.771-7.886-5.546-10.993-5.546-10.993s-1.668,1.219-4.972,3.091c18.186,37.632,44.377,160.962,50.674,191.398
			C288.681,238.537,294.485,236.967,294.485,236.967z"/>
		<path d="M56.248,49.497c-3.234-1.817-4.852-2.996-4.852-2.996c-8.886,3.143-30.145,79.171-37.093,116.658
			C7.345,200.633,0,243.534,0,243.534s1.564,0.108,4.311,0.367C10.393,214.49,37.86,84.646,56.248,49.497z"/>
		<path d="M138.652,35.715c0.021,0,2.467,0.435,6.198,1.729c2.933-2.089,7.438-4.497,12.668-4.497c3.133,0,6.11,0.865,8.85,2.579
			c2.672,1.67,4.313,4.22,5.292,7.312c23.918-4.047,40.354-13.093,49.611-19.656c-13.949,2.333-59.341,9.608-80.206,9.349
			c-35.569-0.435-67-7.301-75.919-9.424c9.385,6.905,30.357,18.628,66.847,21.3c-0.516-1.108-0.717-2.369-0.495-3.658
			C132.073,37.423,135.216,35.106,138.652,35.715z"/>
		<path d="M225.891,23.595c-8.865,6.792-26.522,17.624-53.345,22.243c0.497,3.578,0.435,7.594,0.155,11.671
			c0.601,0.927,1.134,1.893,1.667,2.858c31.877-5.595,59.311-17.53,59.311-17.53L225.891,23.595z"/>
		<path d="M159.859,62.387c0.057-0.515,0.104-1.03,0.155-1.548c-4.961-6.103-11.258-9.624-15.853-11.545
			c-0.285-0.091-0.567-0.204-0.832-0.339c-1.04-0.407-1.993-0.741-2.848-1.007C95.301,46.532,71.27,32.051,61.747,24.507
			l-7.899,18.589c0,0,46.373,19.581,89.141,20.097C148.561,63.257,154.226,62.949,159.859,62.387z"/>
		<path d="M158.445,269.046c22.913-3.2,71.898-15.354,104.396-23.747c-0.528-2.848-1.223-6.907-2.103-11.961
			c-5.696-32.954-17.564-101.533-28.511-125.309c-0.828-1.488-9.518-4.575-15.271-6.617c-12.143-4.306-19.63-7.139-20.396-10.706
			c-1.181-5.504,12.475-18.144,18.082-23.071l-5.421-9.375c-8.575,3.024-19.408,5.965-32.493,7.917
			c3.091,7.791,4.277,16.625,3.459,26.406c-0.14,1.82-1.087,3.41-2.496,4.438c-0.59,2.079-1.294,3.353-2.288,4.218
			c-0.845,0.735-1.927,1.145-3.051,1.145c-1.18,0-2.314-0.44-3.158-1.235c-0.088,0.081-0.171,0.153-0.264,0.223
			c-1.947,1.554-4.981,1.199-6.52-0.728c-0.684-0.859-1.269-1.967-1.761-3.365c-1.6-1.007-2.692-2.731-2.832-4.746
			c-0.534-7.159,0.398-15.689,1.305-23.946c0.021-0.187,0.041-0.383,0.062-0.572c-5.607,0.36-11.514,0.536-17.75,0.456
			c-30.031-0.375-52.196-5.631-67.036-10.918l1.367,0.795l-6.558,11.337c5.618,4.925,19.268,17.562,18.084,23.066
			c-0.769,3.578-8.249,6.4-20.392,10.711c-5.753,2.045-14.449,5.126-15.278,6.633c-10.939,23.765-22.805,92.337-28.505,125.29
			c-0.751,4.324-1.373,7.917-1.859,10.651c16.49,2.517,39.789,7.296,59.497,16.058c34.784,15.456,55.649,6.954,55.649,6.954
			c4.64-5.411,2.708-52.941,2.708-52.941s9.273,14.292,11.208,29.754C152.268,261.321,158.445,269.046,158.445,269.046z
			 M45.798,235.424c-7.583,0-13.725-6.136-13.725-13.722c0-4.79,2.462-9.005,6.178-11.454h-0.005l-0.906-2.17
			c2.068-2.899,5.455-4.795,9.294-4.795c4.72,0,8.772,2.869,10.499,6.97l-1.012,2.444c2.11,2.413,3.394,5.562,3.394,9.01
			C59.515,229.289,53.374,235.424,45.798,235.424z"/>
	</g>
</g>
<g>
</g>
<g>
</g>
<g>
</g>
<g>
</g>
<g>
</g>
<g>
</g>
<g>
</g>
<g>
</g>
<g>
</g>
<g>
</g>
<g>
</g>
<g>
</g>
<g>
</g>
<g>
</g>
<g>
</g>
</svg>
